<mxfile host="Electron" agent="Mozilla/5.0 (Windows NT 10.0; Win64; x64) AppleWebKit/537.36 (KHTML, like Gecko) draw.io/26.0.7 Chrome/128.0.6613.186 Electron/32.2.5 Safari/537.36" version="26.0.7">
  <diagram name="Page-1" id="-H_mtQnk-PTXWXPvYvuk">
    <mxGraphModel dx="948" dy="908" grid="1" gridSize="10" guides="1" tooltips="1" connect="1" arrows="1" fold="1" page="1" pageScale="1" pageWidth="1169" pageHeight="827" math="0" shadow="0">
      <root>
        <mxCell id="0" />
        <mxCell id="1" parent="0" />
        <mxCell id="WMnR38-doPKCx9Wuzzn4-4" value="" style="edgeStyle=orthogonalEdgeStyle;rounded=0;orthogonalLoop=1;jettySize=auto;html=1;" parent="1" source="WMnR38-doPKCx9Wuzzn4-3" target="WMnR38-doPKCx9Wuzzn4-1" edge="1">
          <mxGeometry relative="1" as="geometry" />
        </mxCell>
        <mxCell id="WMnR38-doPKCx9Wuzzn4-3" value="" style="rounded=0;whiteSpace=wrap;html=1;" parent="1" vertex="1">
          <mxGeometry x="590" y="270" width="170" height="250" as="geometry" />
        </mxCell>
        <mxCell id="0KxcLa0UQHLHgX5TM84A-12" value="" style="rounded=0;whiteSpace=wrap;html=1;" parent="1" vertex="1">
          <mxGeometry x="790" y="200" width="370" height="450" as="geometry" />
        </mxCell>
        <mxCell id="FXpxtSmIwOeoKEKka2dG-6" value="" style="rounded=0;whiteSpace=wrap;html=1;" parent="1" vertex="1">
          <mxGeometry x="960" y="430" width="190" height="210" as="geometry" />
        </mxCell>
        <mxCell id="FXpxtSmIwOeoKEKka2dG-5" value="" style="rounded=0;whiteSpace=wrap;html=1;" parent="1" vertex="1">
          <mxGeometry x="960" y="210" width="190" height="210" as="geometry" />
        </mxCell>
        <mxCell id="zA23MoTUsTF4_91t8viU-2" value="&lt;div&gt;mongos_router&lt;/div&gt;" style="shape=cylinder3;whiteSpace=wrap;html=1;boundedLbl=1;backgroundOutline=1;size=15;" parent="1" vertex="1">
          <mxGeometry x="810" y="380" width="90" height="70" as="geometry" />
        </mxCell>
        <mxCell id="WMnR38-doPKCx9Wuzzn4-24" style="edgeStyle=orthogonalEdgeStyle;rounded=0;orthogonalLoop=1;jettySize=auto;html=1;exitX=0;exitY=0.5;exitDx=0;exitDy=0;endArrow=none;startFill=1;startArrow=classic;" parent="1" source="zA23MoTUsTF4_91t8viU-3" edge="1">
          <mxGeometry relative="1" as="geometry">
            <mxPoint x="610" y="390" as="targetPoint" />
            <Array as="points">
              <mxPoint x="600" y="480" />
              <mxPoint x="600" y="390" />
            </Array>
          </mxGeometry>
        </mxCell>
        <mxCell id="zA23MoTUsTF4_91t8viU-3" value="pymongo-api" style="rounded=1;whiteSpace=wrap;html=1;" parent="1" vertex="1">
          <mxGeometry x="620" y="450" width="120" height="60" as="geometry" />
        </mxCell>
        <mxCell id="zA23MoTUsTF4_91t8viU-4" style="edgeStyle=orthogonalEdgeStyle;rounded=0;orthogonalLoop=1;jettySize=auto;html=1;entryX=0;entryY=0.5;entryDx=0;entryDy=0;entryPerimeter=0;exitX=0.998;exitY=0.596;exitDx=0;exitDy=0;exitPerimeter=0;" parent="1" source="WMnR38-doPKCx9Wuzzn4-3" target="zA23MoTUsTF4_91t8viU-2" edge="1">
          <mxGeometry relative="1" as="geometry">
            <mxPoint x="770" y="415" as="sourcePoint" />
            <Array as="points">
              <mxPoint x="760" y="415" />
            </Array>
          </mxGeometry>
        </mxCell>
        <mxCell id="0KxcLa0UQHLHgX5TM84A-1" value="&lt;div&gt;&lt;span style=&quot;background-color: transparent; color: light-dark(rgb(0, 0, 0), rgb(255, 255, 255));&quot;&gt;shard1_r0&lt;/span&gt;&lt;/div&gt;" style="shape=cylinder3;whiteSpace=wrap;html=1;boundedLbl=1;backgroundOutline=1;size=15;" parent="1" vertex="1">
          <mxGeometry x="970" y="270" width="80" height="80" as="geometry" />
        </mxCell>
        <mxCell id="0KxcLa0UQHLHgX5TM84A-2" value="&lt;div&gt;&lt;span style=&quot;background-color: transparent; color: light-dark(rgb(0, 0, 0), rgb(255, 255, 255));&quot;&gt;shard2_r0&lt;/span&gt;&lt;/div&gt;" style="shape=cylinder3;whiteSpace=wrap;html=1;boundedLbl=1;backgroundOutline=1;size=15;" parent="1" vertex="1">
          <mxGeometry x="970" y="490" width="80" height="80" as="geometry" />
        </mxCell>
        <mxCell id="0KxcLa0UQHLHgX5TM84A-3" value="&lt;div&gt;config&lt;span style=&quot;background-color: transparent; color: light-dark(rgb(0, 0, 0), rgb(255, 255, 255));&quot;&gt;Srv&lt;/span&gt;&lt;/div&gt;" style="shape=cylinder3;whiteSpace=wrap;html=1;boundedLbl=1;backgroundOutline=1;size=15;" parent="1" vertex="1">
          <mxGeometry x="810" y="500" width="90" height="70" as="geometry" />
        </mxCell>
        <mxCell id="0KxcLa0UQHLHgX5TM84A-4" style="rounded=0;orthogonalLoop=1;jettySize=auto;html=1;exitX=1;exitY=0;exitDx=0;exitDy=27.5;exitPerimeter=0;entryX=-0.009;entryY=0.452;entryDx=0;entryDy=0;entryPerimeter=0;endArrow=classic;startFill=0;endFill=1;" parent="1" source="zA23MoTUsTF4_91t8viU-2" target="FXpxtSmIwOeoKEKka2dG-5" edge="1">
          <mxGeometry relative="1" as="geometry" />
        </mxCell>
        <mxCell id="0KxcLa0UQHLHgX5TM84A-5" style="rounded=0;orthogonalLoop=1;jettySize=auto;html=1;exitX=1;exitY=0;exitDx=0;exitDy=52.5;exitPerimeter=0;entryX=-0.002;entryY=0.452;entryDx=0;entryDy=0;entryPerimeter=0;endArrow=classic;startFill=0;endFill=1;" parent="1" source="zA23MoTUsTF4_91t8viU-2" target="FXpxtSmIwOeoKEKka2dG-6" edge="1">
          <mxGeometry relative="1" as="geometry" />
        </mxCell>
        <mxCell id="0KxcLa0UQHLHgX5TM84A-6" style="edgeStyle=orthogonalEdgeStyle;rounded=0;orthogonalLoop=1;jettySize=auto;html=1;exitX=0.5;exitY=1;exitDx=0;exitDy=0;exitPerimeter=0;entryX=0.5;entryY=0;entryDx=0;entryDy=0;entryPerimeter=0;endArrow=none;startFill=0;" parent="1" source="zA23MoTUsTF4_91t8viU-2" target="0KxcLa0UQHLHgX5TM84A-3" edge="1">
          <mxGeometry relative="1" as="geometry" />
        </mxCell>
        <mxCell id="0KxcLa0UQHLHgX5TM84A-7" style="rounded=0;orthogonalLoop=1;jettySize=auto;html=1;exitX=0;exitY=0.619;exitDx=0;exitDy=0;exitPerimeter=0;entryX=1;entryY=0;entryDx=0;entryDy=27.5;entryPerimeter=0;endArrow=none;startFill=0;" parent="1" source="FXpxtSmIwOeoKEKka2dG-5" target="0KxcLa0UQHLHgX5TM84A-3" edge="1">
          <mxGeometry relative="1" as="geometry" />
        </mxCell>
        <mxCell id="0KxcLa0UQHLHgX5TM84A-8" style="rounded=0;orthogonalLoop=1;jettySize=auto;html=1;exitX=0;exitY=0.667;exitDx=0;exitDy=0;exitPerimeter=0;entryX=1;entryY=0;entryDx=0;entryDy=52.5;entryPerimeter=0;endArrow=none;startFill=0;" parent="1" source="FXpxtSmIwOeoKEKka2dG-6" target="0KxcLa0UQHLHgX5TM84A-3" edge="1">
          <mxGeometry relative="1" as="geometry" />
        </mxCell>
        <mxCell id="0KxcLa0UQHLHgX5TM84A-13" value="MongoDB" style="text;html=1;align=center;verticalAlign=middle;whiteSpace=wrap;rounded=0;" parent="1" vertex="1">
          <mxGeometry x="800" y="210" width="60" height="30" as="geometry" />
        </mxCell>
        <mxCell id="FXpxtSmIwOeoKEKka2dG-1" value="&lt;div&gt;&lt;span style=&quot;background-color: transparent; color: light-dark(rgb(0, 0, 0), rgb(255, 255, 255));&quot;&gt;shard1_r2&lt;/span&gt;&lt;/div&gt;" style="shape=cylinder3;whiteSpace=wrap;html=1;boundedLbl=1;backgroundOutline=1;size=15;" parent="1" vertex="1">
          <mxGeometry x="1060" y="320" width="80" height="80" as="geometry" />
        </mxCell>
        <mxCell id="FXpxtSmIwOeoKEKka2dG-2" value="&lt;div&gt;&lt;span style=&quot;background-color: transparent; color: light-dark(rgb(0, 0, 0), rgb(255, 255, 255));&quot;&gt;shard1_r1&lt;/span&gt;&lt;/div&gt;" style="shape=cylinder3;whiteSpace=wrap;html=1;boundedLbl=1;backgroundOutline=1;size=15;" parent="1" vertex="1">
          <mxGeometry x="1060" y="220" width="80" height="80" as="geometry" />
        </mxCell>
        <mxCell id="FXpxtSmIwOeoKEKka2dG-19" value="" style="edgeStyle=orthogonalEdgeStyle;rounded=0;orthogonalLoop=1;jettySize=auto;html=1;endArrow=none;startFill=0;" parent="1" source="FXpxtSmIwOeoKEKka2dG-3" target="FXpxtSmIwOeoKEKka2dG-4" edge="1">
          <mxGeometry relative="1" as="geometry" />
        </mxCell>
        <mxCell id="FXpxtSmIwOeoKEKka2dG-3" value="&lt;div&gt;&lt;span style=&quot;background-color: transparent; color: light-dark(rgb(0, 0, 0), rgb(255, 255, 255));&quot;&gt;shard0_r1&lt;/span&gt;&lt;/div&gt;" style="shape=cylinder3;whiteSpace=wrap;html=1;boundedLbl=1;backgroundOutline=1;size=15;" parent="1" vertex="1">
          <mxGeometry x="1060" y="445" width="80" height="85" as="geometry" />
        </mxCell>
        <mxCell id="FXpxtSmIwOeoKEKka2dG-4" value="&lt;div&gt;&lt;span style=&quot;background-color: transparent; color: light-dark(rgb(0, 0, 0), rgb(255, 255, 255));&quot;&gt;shard2_r2&lt;/span&gt;&lt;/div&gt;" style="shape=cylinder3;whiteSpace=wrap;html=1;boundedLbl=1;backgroundOutline=1;size=15;" parent="1" vertex="1">
          <mxGeometry x="1060" y="550" width="80" height="80" as="geometry" />
        </mxCell>
        <mxCell id="FXpxtSmIwOeoKEKka2dG-7" value="Shard1" style="text;html=1;align=center;verticalAlign=middle;whiteSpace=wrap;rounded=0;" parent="1" vertex="1">
          <mxGeometry x="970" y="220" width="60" height="30" as="geometry" />
        </mxCell>
        <mxCell id="FXpxtSmIwOeoKEKka2dG-8" value="Shard2" style="text;html=1;align=center;verticalAlign=middle;whiteSpace=wrap;rounded=0;" parent="1" vertex="1">
          <mxGeometry x="970" y="440" width="60" height="30" as="geometry" />
        </mxCell>
        <mxCell id="FXpxtSmIwOeoKEKka2dG-9" style="rounded=0;orthogonalLoop=1;jettySize=auto;html=1;exitX=0.855;exitY=0;exitDx=0;exitDy=4.35;exitPerimeter=0;entryX=0;entryY=0;entryDx=0;entryDy=28.75;entryPerimeter=0;endArrow=none;startFill=0;" parent="1" source="0KxcLa0UQHLHgX5TM84A-2" target="FXpxtSmIwOeoKEKka2dG-3" edge="1">
          <mxGeometry relative="1" as="geometry" />
        </mxCell>
        <mxCell id="FXpxtSmIwOeoKEKka2dG-15" style="rounded=0;orthogonalLoop=1;jettySize=auto;html=1;exitX=0;exitY=0.5;exitDx=0;exitDy=0;exitPerimeter=0;entryX=0.855;entryY=1;entryDx=0;entryDy=-4.35;entryPerimeter=0;endArrow=none;startFill=0;" parent="1" source="FXpxtSmIwOeoKEKka2dG-4" target="0KxcLa0UQHLHgX5TM84A-2" edge="1">
          <mxGeometry relative="1" as="geometry" />
        </mxCell>
        <mxCell id="FXpxtSmIwOeoKEKka2dG-16" style="rounded=0;orthogonalLoop=1;jettySize=auto;html=1;exitX=0.855;exitY=1;exitDx=0;exitDy=-4.35;exitPerimeter=0;endArrow=none;startFill=0;entryX=-0.004;entryY=0.562;entryDx=0;entryDy=0;entryPerimeter=0;" parent="1" source="0KxcLa0UQHLHgX5TM84A-1" target="FXpxtSmIwOeoKEKka2dG-1" edge="1">
          <mxGeometry relative="1" as="geometry">
            <mxPoint x="1062" y="370" as="targetPoint" />
          </mxGeometry>
        </mxCell>
        <mxCell id="FXpxtSmIwOeoKEKka2dG-17" style="rounded=0;orthogonalLoop=1;jettySize=auto;html=1;exitX=0.855;exitY=0;exitDx=0;exitDy=4.35;exitPerimeter=0;entryX=0;entryY=0.5;entryDx=0;entryDy=0;entryPerimeter=0;endArrow=none;startFill=0;" parent="1" source="0KxcLa0UQHLHgX5TM84A-1" target="FXpxtSmIwOeoKEKka2dG-2" edge="1">
          <mxGeometry relative="1" as="geometry" />
        </mxCell>
        <mxCell id="FXpxtSmIwOeoKEKka2dG-18" style="rounded=0;orthogonalLoop=1;jettySize=auto;html=1;exitX=0.5;exitY=1;exitDx=0;exitDy=0;exitPerimeter=0;entryX=0.5;entryY=0;entryDx=0;entryDy=0;entryPerimeter=0;endArrow=none;startFill=0;" parent="1" source="FXpxtSmIwOeoKEKka2dG-2" target="FXpxtSmIwOeoKEKka2dG-1" edge="1">
          <mxGeometry relative="1" as="geometry" />
        </mxCell>
        <mxCell id="WMnR38-doPKCx9Wuzzn4-1" value="&lt;div&gt;redis&lt;/div&gt;" style="shape=cylinder3;whiteSpace=wrap;html=1;boundedLbl=1;backgroundOutline=1;size=15;" parent="1" vertex="1">
          <mxGeometry x="630" y="550" width="90" height="70" as="geometry" />
        </mxCell>
        <mxCell id="WMnR38-doPKCx9Wuzzn4-11" style="edgeStyle=orthogonalEdgeStyle;rounded=0;orthogonalLoop=1;jettySize=auto;html=1;exitX=1;exitY=0.5;exitDx=0;exitDy=0;endArrow=none;startFill=0;" parent="1" source="WMnR38-doPKCx9Wuzzn4-5" edge="1">
          <mxGeometry relative="1" as="geometry">
            <mxPoint x="750" y="480" as="targetPoint" />
            <Array as="points">
              <mxPoint x="750" y="390" />
            </Array>
          </mxGeometry>
        </mxCell>
        <mxCell id="WMnR38-doPKCx9Wuzzn4-5" value="pymongo-api" style="rounded=1;whiteSpace=wrap;html=1;" parent="1" vertex="1">
          <mxGeometry x="620" y="360" width="120" height="60" as="geometry" />
        </mxCell>
        <mxCell id="WMnR38-doPKCx9Wuzzn4-12" style="edgeStyle=orthogonalEdgeStyle;rounded=0;orthogonalLoop=1;jettySize=auto;html=1;exitX=1;exitY=0.5;exitDx=0;exitDy=0;endArrow=none;startFill=0;" parent="1" source="WMnR38-doPKCx9Wuzzn4-6" edge="1">
          <mxGeometry relative="1" as="geometry">
            <mxPoint x="750" y="390" as="targetPoint" />
            <Array as="points">
              <mxPoint x="750" y="320" />
            </Array>
          </mxGeometry>
        </mxCell>
        <mxCell id="WMnR38-doPKCx9Wuzzn4-23" style="edgeStyle=orthogonalEdgeStyle;rounded=0;orthogonalLoop=1;jettySize=auto;html=1;exitX=0;exitY=0.5;exitDx=0;exitDy=0;endArrow=none;startFill=1;startArrow=classic;" parent="1" source="WMnR38-doPKCx9Wuzzn4-6" edge="1">
          <mxGeometry relative="1" as="geometry">
            <mxPoint x="610" y="390" as="targetPoint" />
            <Array as="points">
              <mxPoint x="600" y="320" />
              <mxPoint x="600" y="390" />
            </Array>
          </mxGeometry>
        </mxCell>
        <mxCell id="WMnR38-doPKCx9Wuzzn4-6" value="pymongo-api" style="rounded=1;whiteSpace=wrap;html=1;" parent="1" vertex="1">
          <mxGeometry x="620" y="290" width="120" height="60" as="geometry" />
        </mxCell>
        <mxCell id="WMnR38-doPKCx9Wuzzn4-8" value="..." style="text;html=1;align=center;verticalAlign=middle;resizable=0;points=[];autosize=1;strokeColor=none;fillColor=none;" parent="1" vertex="1">
          <mxGeometry x="665" y="415" width="30" height="30" as="geometry" />
        </mxCell>
        <mxCell id="WMnR38-doPKCx9Wuzzn4-9" value="&lt;div&gt;consul&lt;br&gt;service registry&lt;/div&gt;" style="shape=cylinder3;whiteSpace=wrap;html=1;boundedLbl=1;backgroundOutline=1;size=15;" parent="1" vertex="1">
          <mxGeometry x="480" y="490" width="90" height="80" as="geometry" />
        </mxCell>
        <mxCell id="WMnR38-doPKCx9Wuzzn4-10" style="edgeStyle=orthogonalEdgeStyle;rounded=0;orthogonalLoop=1;jettySize=auto;html=1;exitX=1;exitY=0.5;exitDx=0;exitDy=0;" parent="1" source="zA23MoTUsTF4_91t8viU-3" edge="1">
          <mxGeometry relative="1" as="geometry">
            <mxPoint x="570" y="530" as="targetPoint" />
            <Array as="points">
              <mxPoint x="750" y="480" />
              <mxPoint x="750" y="530" />
              <mxPoint x="570" y="530" />
            </Array>
          </mxGeometry>
        </mxCell>
        <mxCell id="WMnR38-doPKCx9Wuzzn4-22" value="" style="edgeStyle=orthogonalEdgeStyle;rounded=0;orthogonalLoop=1;jettySize=auto;html=1;entryX=0;entryY=0.5;entryDx=0;entryDy=0;" parent="1" source="WMnR38-doPKCx9Wuzzn4-13" target="WMnR38-doPKCx9Wuzzn4-5" edge="1">
          <mxGeometry relative="1" as="geometry" />
        </mxCell>
        <mxCell id="WMnR38-doPKCx9Wuzzn4-13" value="Gateway" style="rounded=1;whiteSpace=wrap;html=1;" parent="1" vertex="1">
          <mxGeometry x="480" y="365" width="90" height="50" as="geometry" />
        </mxCell>
        <mxCell id="WMnR38-doPKCx9Wuzzn4-19" value="API" style="text;html=1;align=center;verticalAlign=middle;whiteSpace=wrap;rounded=0;" parent="1" vertex="1">
          <mxGeometry x="590" y="270" width="40" height="30" as="geometry" />
        </mxCell>
        <mxCell id="WMnR38-doPKCx9Wuzzn4-20" style="edgeStyle=orthogonalEdgeStyle;rounded=0;orthogonalLoop=1;jettySize=auto;html=1;exitX=0.5;exitY=1;exitDx=0;exitDy=0;entryX=0.5;entryY=0;entryDx=0;entryDy=0;entryPerimeter=0;" parent="1" source="WMnR38-doPKCx9Wuzzn4-13" target="WMnR38-doPKCx9Wuzzn4-9" edge="1">
          <mxGeometry relative="1" as="geometry" />
        </mxCell>
        <mxCell id="K97atLlBG-ourDpmp-Bp-18" style="edgeStyle=orthogonalEdgeStyle;rounded=0;orthogonalLoop=1;jettySize=auto;html=1;exitX=1;exitY=0.5;exitDx=0;exitDy=0;entryX=0;entryY=0.5;entryDx=0;entryDy=0;" edge="1" parent="1" source="K97atLlBG-ourDpmp-Bp-1" target="WMnR38-doPKCx9Wuzzn4-13">
          <mxGeometry relative="1" as="geometry" />
        </mxCell>
        <mxCell id="K97atLlBG-ourDpmp-Bp-1" value="" style="rounded=1;whiteSpace=wrap;html=1;dashed=1;strokeColor=#666666;" vertex="1" parent="1">
          <mxGeometry x="260" y="222.5" width="160" height="160" as="geometry" />
        </mxCell>
        <mxCell id="K97atLlBG-ourDpmp-Bp-2" value="CDN" style="rounded=1;whiteSpace=wrap;html=1;" vertex="1" parent="1">
          <mxGeometry x="350" y="252.5" width="60" height="30" as="geometry" />
        </mxCell>
        <mxCell id="K97atLlBG-ourDpmp-Bp-3" value="cache" style="shape=cylinder3;whiteSpace=wrap;html=1;boundedLbl=1;backgroundOutline=1;size=15;" vertex="1" parent="1">
          <mxGeometry x="350" y="302.5" width="60" height="60" as="geometry" />
        </mxCell>
        <mxCell id="K97atLlBG-ourDpmp-Bp-7" value="" style="edgeStyle=orthogonalEdgeStyle;rounded=0;orthogonalLoop=1;jettySize=auto;html=1;endArrow=none;startFill=0;" edge="1" parent="1" source="WMnR38-doPKCx9Wuzzn4-14">
          <mxGeometry relative="1" as="geometry">
            <mxPoint x="320" y="272.5" as="targetPoint" />
            <Array as="points">
              <mxPoint x="320" y="262.5" />
              <mxPoint x="320" y="267.5" />
            </Array>
          </mxGeometry>
        </mxCell>
        <mxCell id="WMnR38-doPKCx9Wuzzn4-14" value="" style="shape=umlActor;verticalLabelPosition=bottom;verticalAlign=top;html=1;outlineConnect=0;" parent="1" vertex="1">
          <mxGeometry x="270" y="232.5" width="30" height="60" as="geometry" />
        </mxCell>
        <mxCell id="K97atLlBG-ourDpmp-Bp-8" value="" style="edgeStyle=orthogonalEdgeStyle;rounded=0;orthogonalLoop=1;jettySize=auto;html=1;" edge="1" parent="1">
          <mxGeometry relative="1" as="geometry">
            <mxPoint x="300" y="342.5" as="sourcePoint" />
            <mxPoint x="350" y="262.5" as="targetPoint" />
            <Array as="points">
              <mxPoint x="320" y="342.5" />
              <mxPoint x="320" y="262.5" />
              <mxPoint x="350" y="262.5" />
            </Array>
          </mxGeometry>
        </mxCell>
        <mxCell id="K97atLlBG-ourDpmp-Bp-4" value="" style="shape=umlActor;verticalLabelPosition=bottom;verticalAlign=top;html=1;outlineConnect=0;" vertex="1" parent="1">
          <mxGeometry x="270" y="312.5" width="30" height="60" as="geometry" />
        </mxCell>
        <mxCell id="K97atLlBG-ourDpmp-Bp-9" style="edgeStyle=orthogonalEdgeStyle;rounded=0;orthogonalLoop=1;jettySize=auto;html=1;exitX=0.5;exitY=1;exitDx=0;exitDy=0;entryX=0.5;entryY=0;entryDx=0;entryDy=0;entryPerimeter=0;" edge="1" parent="1" source="K97atLlBG-ourDpmp-Bp-2" target="K97atLlBG-ourDpmp-Bp-3">
          <mxGeometry relative="1" as="geometry" />
        </mxCell>
        <mxCell id="K97atLlBG-ourDpmp-Bp-19" style="edgeStyle=orthogonalEdgeStyle;rounded=0;orthogonalLoop=1;jettySize=auto;html=1;exitX=1;exitY=0.5;exitDx=0;exitDy=0;entryX=0;entryY=0.5;entryDx=0;entryDy=0;" edge="1" parent="1" source="K97atLlBG-ourDpmp-Bp-10" target="WMnR38-doPKCx9Wuzzn4-13">
          <mxGeometry relative="1" as="geometry" />
        </mxCell>
        <mxCell id="K97atLlBG-ourDpmp-Bp-20" value="" style="group" vertex="1" connectable="0" parent="1">
          <mxGeometry x="260" y="420" width="160" height="160" as="geometry" />
        </mxCell>
        <mxCell id="K97atLlBG-ourDpmp-Bp-10" value="" style="rounded=1;whiteSpace=wrap;html=1;dashed=1;strokeColor=#666666;" vertex="1" parent="K97atLlBG-ourDpmp-Bp-20">
          <mxGeometry width="160" height="160" as="geometry" />
        </mxCell>
        <mxCell id="K97atLlBG-ourDpmp-Bp-11" value="CDN" style="rounded=1;whiteSpace=wrap;html=1;" vertex="1" parent="K97atLlBG-ourDpmp-Bp-20">
          <mxGeometry x="90" y="30" width="60" height="30" as="geometry" />
        </mxCell>
        <mxCell id="K97atLlBG-ourDpmp-Bp-12" value="cache" style="shape=cylinder3;whiteSpace=wrap;html=1;boundedLbl=1;backgroundOutline=1;size=15;" vertex="1" parent="K97atLlBG-ourDpmp-Bp-20">
          <mxGeometry x="90" y="80" width="60" height="60" as="geometry" />
        </mxCell>
        <mxCell id="K97atLlBG-ourDpmp-Bp-13" value="" style="edgeStyle=orthogonalEdgeStyle;rounded=0;orthogonalLoop=1;jettySize=auto;html=1;endArrow=none;startFill=0;" edge="1" parent="K97atLlBG-ourDpmp-Bp-20" source="K97atLlBG-ourDpmp-Bp-14">
          <mxGeometry relative="1" as="geometry">
            <mxPoint x="60" y="50" as="targetPoint" />
            <Array as="points">
              <mxPoint x="60" y="40" />
              <mxPoint x="60" y="45" />
            </Array>
          </mxGeometry>
        </mxCell>
        <mxCell id="K97atLlBG-ourDpmp-Bp-14" value="" style="shape=umlActor;verticalLabelPosition=bottom;verticalAlign=top;html=1;outlineConnect=0;" vertex="1" parent="K97atLlBG-ourDpmp-Bp-20">
          <mxGeometry x="10" y="10" width="30" height="60" as="geometry" />
        </mxCell>
        <mxCell id="K97atLlBG-ourDpmp-Bp-15" value="" style="edgeStyle=orthogonalEdgeStyle;rounded=0;orthogonalLoop=1;jettySize=auto;html=1;" edge="1" parent="K97atLlBG-ourDpmp-Bp-20">
          <mxGeometry relative="1" as="geometry">
            <mxPoint x="40" y="120" as="sourcePoint" />
            <mxPoint x="90" y="40" as="targetPoint" />
            <Array as="points">
              <mxPoint x="60" y="120" />
              <mxPoint x="60" y="40" />
              <mxPoint x="90" y="40" />
            </Array>
          </mxGeometry>
        </mxCell>
        <mxCell id="K97atLlBG-ourDpmp-Bp-16" value="" style="shape=umlActor;verticalLabelPosition=bottom;verticalAlign=top;html=1;outlineConnect=0;" vertex="1" parent="K97atLlBG-ourDpmp-Bp-20">
          <mxGeometry x="10" y="90" width="30" height="60" as="geometry" />
        </mxCell>
        <mxCell id="K97atLlBG-ourDpmp-Bp-17" style="edgeStyle=orthogonalEdgeStyle;rounded=0;orthogonalLoop=1;jettySize=auto;html=1;exitX=0.5;exitY=1;exitDx=0;exitDy=0;entryX=0.5;entryY=0;entryDx=0;entryDy=0;entryPerimeter=0;" edge="1" parent="K97atLlBG-ourDpmp-Bp-20" source="K97atLlBG-ourDpmp-Bp-11" target="K97atLlBG-ourDpmp-Bp-12">
          <mxGeometry relative="1" as="geometry" />
        </mxCell>
        <mxCell id="K97atLlBG-ourDpmp-Bp-22" value="Регион 1" style="text;html=1;align=center;verticalAlign=middle;resizable=0;points=[];autosize=1;strokeColor=none;fillColor=none;" vertex="1" parent="1">
          <mxGeometry x="260" y="192.5" width="70" height="30" as="geometry" />
        </mxCell>
        <mxCell id="K97atLlBG-ourDpmp-Bp-23" value="Регион 2" style="text;html=1;align=center;verticalAlign=middle;resizable=0;points=[];autosize=1;strokeColor=none;fillColor=none;" vertex="1" parent="1">
          <mxGeometry x="260" y="390" width="70" height="30" as="geometry" />
        </mxCell>
      </root>
    </mxGraphModel>
  </diagram>
</mxfile>
